<svg width="50" height="50" viewBox="0 0 50 50" fill="none" xmlns="http://www.w3.org/2000/svg">
<path d="M44.8043 22.625H40.875V18.6875C40.875 16.5137 39.1113 14.75 36.9375 14.75H23.8125L18.5625 9.5H5.4375C3.26367 9.5 1.5 11.2637 1.5 13.4375V37.0625C1.5 39.2363 3.26367 41 5.4375 41H38.25C39.6035 41 40.8668 40.3027 41.5887 39.1461L48.143 28.6461C49.7836 26.0293 47.8969 22.625 44.8043 22.625ZM5.4375 13.9297C5.4375 13.659 5.65898 13.4375 5.92969 13.4375H16.9301L22.1801 18.6875H36.4453C36.716 18.6875 36.9375 18.909 36.9375 19.1797V22.625H13.9688C12.5906 22.625 11.3109 23.3469 10.5973 24.5281L5.4375 33.0758V13.9297ZM38.25 37.0625H7.40625L13.7391 26.5625H44.8125L38.25 37.0625Z" fill="#CCCCCC"/>
<path d="M29.7254 28.652H33.2547L28.546 35.9027H25.0167L29.7254 28.652ZM25.1678 28.652H28.6781L23.9694 35.9027H23.3981C21.8408 35.9027 21.2 35.4591 21.4758 34.5718C21.5609 34.2843 21.7256 33.9525 21.9699 33.5763L25.1678 28.652Z" fill="#CCCCCC"/>
</svg>
