<svg width="50" height="50" viewBox="0 0 50 50" fill="none" xmlns="http://www.w3.org/2000/svg">
<path d="M47.4935 39.376C48.9356 41.8755 47.1255 45 44.2453 45H6.75424C3.86854 45 2.06682 41.8707 3.50604 39.376L22.2518 6.87383C23.6946 4.37313 27.3081 4.37766 28.7482 6.87383L47.4935 39.376ZM25.5 32.6562C23.5153 32.6562 21.9063 34.2652 21.9063 36.25C21.9063 38.2348 23.5153 39.8438 25.5 39.8438C27.4848 39.8438 29.0938 38.2348 29.0938 36.25C29.0938 34.2652 27.4848 32.6562 25.5 32.6562ZM22.0881 19.7386L22.6676 30.3636C22.6947 30.8608 23.1058 31.25 23.6037 31.25H27.3964C27.8942 31.25 28.3053 30.8608 28.3324 30.3636L28.912 19.7386C28.9413 19.2016 28.5137 18.75 27.9759 18.75H23.0241C22.4863 18.75 22.0588 19.2016 22.0881 19.7386Z" fill="#D91717"/>
</svg>
