<svg width="165" height="50" viewBox="0 0 165 50" fill="none" xmlns="http://www.w3.org/2000/svg">
<g clip-path="url(#clip0_33_4)">
<path d="M27.0156 5.42773H42.7617V44H27.0156V5.42773ZM6.68164 5.42773H22.3428V44H19.7939C12.846 44 8.70182 41.64 7.36133 36.9199C6.9082 35.3906 6.68164 33.6253 6.68164 31.624V5.42773Z" fill="url(#paint0_linear_33_4)"/>
</g>
<path d="M64.9219 33.0469C64.5781 33.3594 64.2083 33.6562 63.8125 33.9375C63.4271 34.2083 63.0208 34.4479 62.5938 34.6562C62.1667 34.8542 61.724 35.0104 61.2656 35.125C60.8177 35.25 60.3594 35.3125 59.8906 35.3125C58.8594 35.3125 57.8906 35.1302 56.9844 34.7656C56.0781 34.401 55.2812 33.8854 54.5938 33.2188C53.9167 32.5417 53.3802 31.724 52.9844 30.7656C52.599 29.7969 52.4062 28.7135 52.4062 27.5156V18.2656H56.6562V27.5156C56.6562 28.0781 56.7396 28.5833 56.9062 29.0312C57.0833 29.4688 57.3177 29.8385 57.6094 30.1406C57.901 30.4427 58.2396 30.6719 58.625 30.8281C59.0208 30.9844 59.4427 31.0625 59.8906 31.0625C60.3281 31.0625 60.7396 30.9635 61.125 30.7656C61.5208 30.5573 61.8646 30.2865 62.1562 29.9531C62.4479 29.6198 62.6771 29.2448 62.8438 28.8281C63.0104 28.401 63.0938 27.9635 63.0938 27.5156V18.2656H67.3594V35H66.3281L64.9219 33.0469ZM73.6106 35H69.345V18.2656H70.3762L71.7825 19.8906C72.47 19.2656 73.246 18.7865 74.1106 18.4531C74.9856 18.1094 75.8971 17.9375 76.845 17.9375C77.8658 17.9375 78.8294 18.1354 79.7356 18.5312C80.6419 18.9167 81.4335 19.4531 82.1106 20.1406C82.7877 20.8177 83.319 21.6146 83.7044 22.5312C84.1002 23.4375 84.2981 24.4062 84.2981 25.4375V35H80.0325V25.4375C80.0325 25 79.9492 24.5885 79.7825 24.2031C79.6158 23.8073 79.3867 23.4635 79.095 23.1719C78.8033 22.8802 78.4648 22.651 78.0794 22.4844C77.694 22.3177 77.2825 22.2344 76.845 22.2344C76.3971 22.2344 75.9752 22.3177 75.5794 22.4844C75.1835 22.651 74.8398 22.8802 74.5481 23.1719C74.2565 23.4635 74.0273 23.8073 73.8606 24.2031C73.694 24.5885 73.6106 25 73.6106 25.4375V35ZM107.346 35H103.096V24.375C103.096 24.0833 103.039 23.8073 102.924 23.5469C102.82 23.2865 102.669 23.0573 102.471 22.8594C102.273 22.6615 102.044 22.5104 101.784 22.4062C101.523 22.2917 101.247 22.2344 100.956 22.2344C100.664 22.2344 100.388 22.2917 100.127 22.4062C99.8775 22.5104 99.6535 22.6615 99.4556 22.8594C99.2681 23.0573 99.1171 23.2865 99.0025 23.5469C98.8983 23.8073 98.8462 24.0833 98.8462 24.375V35H94.5806V24.375C94.5806 24.0833 94.5233 23.8073 94.4087 23.5469C94.3046 23.2865 94.1535 23.0573 93.9556 22.8594C93.7577 22.6615 93.5285 22.5104 93.2681 22.4062C93.0077 22.2917 92.7317 22.2344 92.44 22.2344C92.1483 22.2344 91.8723 22.2917 91.6119 22.4062C91.3619 22.5104 91.1379 22.6615 90.94 22.8594C90.7525 23.0573 90.6015 23.2865 90.4869 23.5469C90.3827 23.8073 90.3306 24.0833 90.3306 24.375V35H86.065V18.2656H87.0962L88.2525 19.5469C88.8462 19.0469 89.4973 18.6615 90.2056 18.3906C90.9244 18.1094 91.6692 17.9688 92.44 17.9688C93.2212 17.9688 93.9817 18.1146 94.7212 18.4062C95.4712 18.6979 96.1275 19.2031 96.69 19.9219C96.9504 19.5677 97.2473 19.2656 97.5806 19.0156C97.914 18.7656 98.2629 18.5625 98.6275 18.4062C99.0025 18.25 99.3879 18.1406 99.7837 18.0781C100.18 18.0052 100.57 17.9688 100.956 17.9688C101.841 17.9688 102.669 18.1354 103.44 18.4688C104.221 18.8021 104.898 19.2604 105.471 19.8438C106.055 20.4167 106.513 21.0938 106.846 21.875C107.18 22.6562 107.346 23.4896 107.346 24.375V35ZM125.394 35H124.363L122.707 32.7031C122.301 33.0677 121.868 33.4115 121.41 33.7344C120.962 34.0469 120.488 34.3229 119.988 34.5625C119.488 34.7917 118.972 34.974 118.441 35.1094C117.92 35.2448 117.389 35.3125 116.847 35.3125C115.67 35.3125 114.561 35.1146 113.519 34.7188C112.488 34.3229 111.582 33.75 110.801 33C110.03 32.2396 109.42 31.3125 108.972 30.2188C108.525 29.125 108.301 27.8802 108.301 26.4844C108.301 25.1823 108.525 23.9896 108.972 22.9062C109.42 21.8125 110.03 20.875 110.801 20.0938C111.582 19.3125 112.488 18.7083 113.519 18.2812C114.561 17.8438 115.67 17.625 116.847 17.625C117.389 17.625 117.926 17.6927 118.457 17.8281C118.988 17.9635 119.504 18.151 120.004 18.3906C120.504 18.6302 120.978 18.9115 121.426 19.2344C121.884 19.5573 122.311 19.9062 122.707 20.2812L124.363 18.2969H125.394V35ZM121.097 26.4844C121.097 25.901 120.983 25.3385 120.754 24.7969C120.535 24.2448 120.233 23.7604 119.847 23.3438C119.462 22.9167 119.009 22.5781 118.488 22.3281C117.978 22.0677 117.431 21.9375 116.847 21.9375C116.264 21.9375 115.712 22.0365 115.191 22.2344C114.681 22.4323 114.233 22.724 113.847 23.1094C113.472 23.4948 113.176 23.974 112.957 24.5469C112.738 25.1094 112.629 25.7552 112.629 26.4844C112.629 27.2135 112.738 27.8646 112.957 28.4375C113.176 29 113.472 29.474 113.847 29.8594C114.233 30.2448 114.681 30.5365 115.191 30.7344C115.712 30.9323 116.264 31.0312 116.847 31.0312C117.431 31.0312 117.978 30.9062 118.488 30.6562C119.009 30.3958 119.462 30.0573 119.847 29.6406C120.233 29.2135 120.535 28.7292 120.754 28.1875C120.983 27.6354 121.097 27.0677 121.097 26.4844ZM136.567 35H126.817V30.75H136.567C136.859 30.75 137.109 30.6458 137.317 30.4375C137.526 30.2292 137.63 29.9792 137.63 29.6875C137.63 29.3854 137.526 29.1875 137.317 29.0938C137.109 29 136.859 28.9531 136.567 28.9531H132.13C131.39 28.9531 130.698 28.8125 130.052 28.5312C129.406 28.25 128.844 27.8698 128.364 27.3906C127.885 26.901 127.505 26.3333 127.224 25.6875C126.953 25.0417 126.817 24.349 126.817 23.6094C126.817 22.8698 126.953 22.1771 127.224 21.5312C127.505 20.8854 127.885 20.3229 128.364 19.8438C128.844 19.3646 129.406 18.9896 130.052 18.7188C130.698 18.4375 131.39 18.2969 132.13 18.2969H140.771V22.5469H132.13C131.838 22.5469 131.588 22.651 131.38 22.8594C131.172 23.0677 131.067 23.3177 131.067 23.6094C131.067 23.9115 131.172 24.1719 131.38 24.3906C131.588 24.599 131.838 24.7031 132.13 24.7031H136.567C137.297 24.7031 137.984 24.8281 138.63 25.0781C139.276 25.3177 139.838 25.6562 140.317 26.0938C140.797 26.5312 141.177 27.0573 141.458 27.6719C141.739 28.2865 141.88 28.9583 141.88 29.6875C141.88 30.4271 141.739 31.1198 141.458 31.7656C141.177 32.401 140.797 32.9635 140.317 33.4531C139.838 33.9323 139.276 34.3125 138.63 34.5938C137.984 34.8646 137.297 35 136.567 35ZM147.178 35H142.881V11.6094H147.178V26.3594L153.537 18.2969H158.444L152.897 25.2656L158.444 35H153.537L150.147 28.9219L147.178 32.8594V35Z" fill="#DDDDDD"/>
<defs>
<linearGradient id="paint0_linear_33_4" x1="25" y1="60" x2="25" y2="-13" gradientUnits="userSpaceOnUse">
<stop stop-color="#FF4315"/>
<stop offset="1" stop-color="#E6B3A7"/>
</linearGradient>
<clipPath id="clip0_33_4">
<rect width="50" height="50" fill="white"/>
</clipPath>
</defs>
</svg>
