<svg width="175" height="50" viewBox="0 0 175 50" fill="none" xmlns="http://www.w3.org/2000/svg">
<g clip-path="url(#clip0_26_2)">
<path d="M48.8594 26.8594C47.5938 34.3438 42.2969 44.6094 35.7656 44.5156C29.2344 44.4219 24.2188 34.0156 23.1563 26.5625C22.5089 21.7161 23.2118 16.785 25.1875 12.3125C28.3551 14.6648 32.1801 15.9653 36.125 16.0313C40.0795 16.0909 43.9515 14.8987 47.1875 12.625C49.0385 17.127 49.6169 22.051 48.8594 26.8594Z" fill="#B5838D"/>
<path d="M34.5937 15.9844C34.875 15.9844 35.2812 15.9844 35.75 15.9844C31.9365 15.8424 28.2548 14.5517 25.1875 12.2812C25.0781 12.5312 24.9687 12.8281 24.8438 13.125C27.7733 14.947 31.1442 15.9356 34.5937 15.9844Z" fill="#6D6875"/>
<path d="M47.2188 12.5781C46.7969 12.875 46.375 13.1094 45.9531 13.3594C47.5763 17.6639 48.0396 22.3194 47.2969 26.8594C46.0938 34 41.2188 43.6406 35.0938 44.4375C35.3174 44.4536 35.542 44.4536 35.7656 44.4375C42.2969 44.5312 47.5938 34.2656 48.8594 26.7812C49.6209 21.9859 49.0535 17.0736 47.2188 12.5781Z" fill="#6D6875"/>
<path d="M32.1473 23.0548L25.8979 22.9697C25.9092 22.141 26.2492 21.3507 26.8432 20.7727C27.4372 20.1946 28.2364 19.8762 29.0652 19.8875C29.8939 19.8988 30.6842 20.2388 31.2622 20.8328C31.8402 21.4268 32.1586 22.2261 32.1473 23.0548Z" fill="white"/>
<path d="M30.5938 23.0469H32.1563C32.1563 22.2181 31.827 21.4232 31.241 20.8372C30.6549 20.2511 29.8601 19.9219 29.0313 19.9219C28.757 19.9255 28.4842 19.9622 28.2188 20.0312C28.8937 20.1981 29.4937 20.5852 29.9238 21.1314C30.354 21.6776 30.5897 22.3516 30.5938 23.0469Z" fill="#E1E1E3"/>
<path d="M35.9375 29.3438C37.3852 29.3643 38.7657 29.9582 39.7762 30.9951C40.7867 32.032 41.3448 33.4272 41.3281 34.875V35.6563C39.7121 34.5837 37.8217 33.9988 35.8823 33.971C33.943 33.9433 32.0366 34.4741 30.3906 35.5V34.7188C30.3987 34.0007 30.549 33.2913 30.8328 32.6316C31.1165 31.9719 31.5281 31.375 32.0439 30.8752C32.5596 30.3755 33.1692 29.9829 33.8375 29.72C34.5058 29.4571 35.2195 29.3293 35.9375 29.3438Z" fill="white"/>
<path d="M35.9375 29.3438C35.6463 29.3199 35.3537 29.3199 35.0625 29.3438C36.3671 29.5221 37.5621 30.169 38.4247 31.1638C39.2873 32.1586 39.7583 33.4333 39.75 34.75C40.2926 34.9829 40.8152 35.2599 41.3125 35.5781V34.7969C41.3086 33.3653 40.7435 31.9923 39.7386 30.9727C38.7336 29.9531 37.3689 29.3683 35.9375 29.3438Z" fill="#E1E1E3"/>
<path d="M46.166 23.2547L39.9166 23.1696C39.9278 22.3409 40.2679 21.5506 40.8619 20.9726C41.4558 20.3946 42.2551 20.0762 43.0838 20.0874C43.9125 20.0987 44.7028 20.4388 45.2809 21.0327C45.8589 21.6267 46.1773 22.426 46.166 23.2547Z" fill="white"/>
<path d="M44.6094 23.2344H46.1719C46.1719 22.4056 45.8426 21.6107 45.2566 21.0247C44.6705 20.4386 43.8757 20.1094 43.0469 20.1094C42.7727 20.114 42.5 20.1507 42.2344 20.2187C42.9093 20.3856 43.5093 20.7727 43.9395 21.3189C44.3696 21.8651 44.6054 22.5391 44.6094 23.2344Z" fill="#E1E1E3"/>
<path d="M28.125 18.2969C29.5469 25.75 28.125 37.2188 22 39.4219C15.875 41.625 7.53124 33.5938 3.90624 26.9219C1.60277 22.6066 0.522194 17.744 0.781235 12.8594C4.59152 13.9714 8.65641 13.8456 12.3906 12.5C16.1168 11.1735 19.3311 8.70809 21.5781 5.45312C24.9027 9.049 27.1684 13.494 28.125 18.2969Z" fill="#FFB4A2"/>
<path d="M28.125 18.2969C27.1719 13.5084 24.9175 9.07523 21.6094 5.48438C21.375 5.82812 21.125 6.125 20.875 6.4375C23.739 9.84876 25.6953 13.928 26.5625 18.2969C27.9844 25.75 26.5625 37.2187 20.4375 39.4219C19.987 39.5743 19.5203 39.674 19.0469 39.7187C20.0411 39.8417 21.0502 39.7403 22 39.4219C28.125 37.2187 29.5156 25.75 28.125 18.2969ZM5.32813 13.6094C3.79838 13.5519 2.28163 13.3052 0.8125 12.875V13.25C2.29834 13.5469 3.81402 13.6676 5.32813 13.6094Z" fill="#E5989B"/>
<path d="M18.9531 31C19.6284 30.7602 20.2499 30.3897 20.7819 29.9097C21.3139 29.4296 21.7461 28.8494 22.0537 28.2022C22.3614 27.555 22.5384 26.8535 22.5748 26.1378C22.6111 25.4221 22.5061 24.7063 22.2656 24.0313L22 23.2969C20.8168 24.8232 19.2212 25.9786 17.402 26.6266C15.5828 27.2745 13.616 27.3879 11.7344 26.9531L12 27.6875C12.2381 28.3622 12.607 28.9833 13.0856 29.5152C13.5642 30.0471 14.1431 30.4793 14.789 30.787C15.4349 31.0947 16.1353 31.2719 16.8498 31.3085C17.5644 31.345 18.2792 31.2402 18.9531 31Z" fill="white"/>
<path d="M22.2656 24.0313L22 23.2969C21.6441 23.7448 21.2522 24.1629 20.8281 24.5469C21.1598 25.8573 20.9915 27.2444 20.3559 28.4375C19.7204 29.6305 18.6632 30.5441 17.3906 31C17.0702 31.1075 16.7407 31.186 16.4062 31.2344C17.2616 31.3661 18.1362 31.2856 18.9531 31C19.6284 30.7602 20.2499 30.3897 20.7819 29.9097C21.3139 29.4296 21.7461 28.8494 22.0537 28.2022C22.3614 27.555 22.5384 26.8535 22.5748 26.1378C22.6111 25.4221 22.5061 24.7063 22.2656 24.0313Z" fill="#E1E1E3"/>
<path d="M17.4082 15.0034L23.2957 12.9058C23.5738 13.6865 23.5305 14.5458 23.1751 15.2945C22.8197 16.0433 22.1815 16.6202 21.4007 16.8983C20.62 17.1765 19.7608 17.1331 19.012 16.7777C18.2633 16.4224 17.6863 15.7841 17.4082 15.0034Z" fill="white"/>
<path d="M23.2656 12.9219L21.875 13.4375C21.9995 14.1603 21.8658 14.9039 21.4973 15.538C21.1288 16.1722 20.549 16.6565 19.8594 16.9062H19.5781C20.1773 17.1009 20.8227 17.1009 21.4219 16.9062C22.1913 16.6179 22.8162 16.0381 23.1613 15.2924C23.5064 14.5467 23.5438 13.695 23.2656 12.9219Z" fill="#E1E1E3"/>
<path d="M4.19131 19.7143L10.0788 17.6167C10.357 18.3974 10.3136 19.2567 9.95822 20.0054C9.60285 20.7542 8.96459 21.3311 8.18386 21.6092C7.40313 21.8874 6.54388 21.844 5.79513 21.4887C5.04638 21.1333 4.46947 20.495 4.19131 19.7143Z" fill="white"/>
<path d="M10.0625 17.625L8.625 18.1406C8.7495 18.8634 8.6158 19.607 8.24731 20.2412C7.87881 20.8753 7.299 21.3596 6.60938 21.6094L6.25 21.6875C6.86334 21.8509 7.5119 21.8236 8.10938 21.6094C8.50022 21.4774 8.86108 21.2694 9.17113 20.9973C9.48119 20.7252 9.7343 20.3944 9.91587 20.024C10.0974 19.6536 10.2039 19.2509 10.2291 18.8392C10.2542 18.4274 10.1976 18.0148 10.0625 17.625Z" fill="#E1E1E3"/>
<path d="M67.968 37.192C66.1973 37.192 64.6187 36.8187 63.232 36.072C61.8453 35.304 60.7467 34.2587 59.936 32.936C59.1467 31.592 58.752 30.0773 58.752 28.392V14.568H62.912V28.104C62.912 29.1067 63.136 30.0027 63.584 30.792C64.0533 31.5813 64.672 32.2107 65.44 32.68C66.208 33.128 67.0507 33.352 67.968 33.352C68.9493 33.352 69.8347 33.128 70.624 32.68C71.4133 32.2107 72.0427 31.5813 72.512 30.792C72.9813 30.0027 73.216 29.1067 73.216 28.104V14.568H77.184V28.392C77.184 30.0773 76.7787 31.592 75.968 32.936C75.1787 34.2587 74.0907 35.304 72.704 36.072C71.3173 36.8187 69.7387 37.192 67.968 37.192ZM80.9615 37V20.136H84.7695L84.8335 23.592L84.0975 23.976C84.3322 23.2293 84.7482 22.5467 85.3455 21.928C85.9642 21.288 86.7002 20.776 87.5535 20.392C88.4068 19.9867 89.2922 19.784 90.2095 19.784C91.4895 19.784 92.5562 20.04 93.4095 20.552C94.2842 21.064 94.9348 21.832 95.3615 22.856C95.7882 23.88 96.0015 25.16 96.0015 26.696V37H92.0975V26.984C92.0975 26.1093 91.9802 25.3947 91.7455 24.84C91.5108 24.264 91.1482 23.848 90.6575 23.592C90.1668 23.3147 89.5695 23.1973 88.8655 23.24C88.2895 23.24 87.7562 23.336 87.2655 23.528C86.7748 23.6987 86.3482 23.9547 85.9855 24.296C85.6442 24.616 85.3668 25 85.1535 25.448C84.9615 25.8747 84.8655 26.344 84.8655 26.856V37H82.9135C82.5508 37 82.1988 37 81.8575 37C81.5375 37 81.2388 37 80.9615 37ZM99.1175 37V20.136H102.957L103.021 23.56L102.381 23.816C102.573 23.2613 102.861 22.7493 103.245 22.28C103.629 21.7893 104.088 21.3627 104.621 21C105.155 20.6373 105.72 20.36 106.317 20.168C106.915 19.9547 107.533 19.848 108.173 19.848C109.091 19.848 109.901 19.9973 110.605 20.296C111.309 20.5947 111.896 21.0533 112.365 21.672C112.856 22.2907 113.229 23.08 113.486 24.04L112.877 23.912L113.101 23.4C113.358 22.888 113.699 22.4187 114.125 21.992C114.552 21.5653 115.032 21.192 115.566 20.872C116.099 20.5307 116.653 20.2747 117.229 20.104C117.827 19.9333 118.403 19.848 118.958 19.848C120.238 19.848 121.304 20.104 122.157 20.616C123.011 21.128 123.651 21.9067 124.077 22.952C124.504 23.9973 124.718 25.288 124.718 26.824V37H120.781V27.08C120.781 25.8 120.525 24.8507 120.014 24.232C119.523 23.6133 118.755 23.304 117.709 23.304C117.155 23.304 116.643 23.4 116.174 23.592C115.704 23.7627 115.288 24.0187 114.925 24.36C114.584 24.68 114.317 25.064 114.125 25.512C113.933 25.9387 113.837 26.4187 113.837 26.952V37H109.901V27.048C109.901 25.832 109.635 24.904 109.101 24.264C108.589 23.624 107.853 23.304 106.893 23.304C106.339 23.304 105.827 23.4 105.357 23.592C104.909 23.7627 104.504 24.0187 104.141 24.36C103.8 24.68 103.533 25.0533 103.341 25.48C103.149 25.9067 103.053 26.376 103.053 26.888V37H99.1175ZM137.44 37V26.216C137.44 25.2987 137.13 24.584 136.512 24.072C135.914 23.5387 135.136 23.272 134.176 23.272C133.28 23.272 132.469 23.4533 131.744 23.816C131.018 24.1573 130.346 24.712 129.728 25.48L127.296 23.048C128.298 21.9813 129.408 21.1707 130.624 20.616C131.84 20.0613 133.152 19.784 134.56 19.784C135.904 19.784 137.056 19.9973 138.016 20.424C138.997 20.8507 139.754 21.4907 140.288 22.344C140.821 23.176 141.088 24.2 141.088 25.416V37H137.44ZM132.64 37.32C131.552 37.32 130.581 37.1067 129.728 36.68C128.874 36.2533 128.192 35.6667 127.68 34.92C127.189 34.152 126.944 33.256 126.944 32.232C126.944 31.336 127.104 30.5573 127.424 29.896C127.744 29.2133 128.213 28.648 128.832 28.2C129.472 27.752 130.261 27.4213 131.2 27.208C132.16 26.9733 133.258 26.856 134.496 26.856H139.328L139.04 29.672H134.272C133.696 29.672 133.184 29.7253 132.736 29.832C132.288 29.9387 131.904 30.0987 131.584 30.312C131.264 30.5253 131.029 30.7813 130.88 31.08C130.73 31.3573 130.656 31.6987 130.656 32.104C130.656 32.5307 130.762 32.904 130.976 33.224C131.189 33.5227 131.477 33.7573 131.84 33.928C132.202 34.0987 132.629 34.184 133.12 34.184C133.824 34.184 134.485 34.0667 135.104 33.832C135.744 33.5973 136.309 33.2667 136.8 32.84C137.29 32.4133 137.674 31.9333 137.952 31.4L138.752 33.576C138.304 34.3227 137.749 34.9733 137.088 35.528C136.448 36.0827 135.744 36.52 134.976 36.84C134.229 37.16 133.45 37.32 132.64 37.32ZM149.597 37.32C148.125 37.32 146.792 37.0747 145.597 36.584C144.424 36.072 143.464 35.3467 142.717 34.408L145.245 32.232C145.885 32.936 146.6 33.4587 147.389 33.8C148.179 34.12 149.011 34.28 149.885 34.28C150.248 34.28 150.568 34.2373 150.845 34.152C151.144 34.0667 151.4 33.9387 151.613 33.768C151.827 33.5973 151.987 33.3947 152.093 33.16C152.221 32.9253 152.285 32.6693 152.285 32.392C152.285 31.88 152.093 31.4747 151.709 31.176C151.496 31.048 151.165 30.8987 150.717 30.728C150.269 30.536 149.683 30.3547 148.957 30.184C147.805 29.8853 146.835 29.544 146.045 29.16C145.277 28.7547 144.68 28.3067 144.253 27.816C143.891 27.3893 143.624 26.9307 143.453 26.44C143.283 25.928 143.197 25.3627 143.197 24.744C143.197 23.784 143.475 22.9307 144.029 22.184C144.605 21.4373 145.363 20.8507 146.301 20.424C147.24 19.9973 148.285 19.784 149.437 19.784C150.291 19.784 151.112 19.8907 151.901 20.104C152.712 20.3173 153.459 20.6267 154.141 21.032C154.824 21.416 155.411 21.8853 155.901 22.44L153.725 24.84C153.341 24.456 152.904 24.1147 152.413 23.816C151.944 23.496 151.464 23.2507 150.973 23.08C150.483 22.9093 150.024 22.824 149.597 22.824C149.192 22.824 148.829 22.8667 148.509 22.952C148.189 23.016 147.923 23.1227 147.709 23.272C147.496 23.4213 147.325 23.6133 147.197 23.848C147.091 24.0613 147.037 24.3067 147.037 24.584C147.059 24.8613 147.123 25.1173 147.229 25.352C147.357 25.5653 147.528 25.7467 147.741 25.896C147.955 26.0453 148.296 26.216 148.765 26.408C149.235 26.6 149.843 26.7813 150.589 26.952C151.635 27.2293 152.509 27.5387 153.213 27.88C153.917 28.2213 154.472 28.616 154.877 29.064C155.283 29.448 155.571 29.896 155.741 30.408C155.912 30.92 155.997 31.496 155.997 32.136C155.997 33.1387 155.709 34.0347 155.133 34.824C154.579 35.592 153.821 36.2 152.861 36.648C151.901 37.096 150.813 37.32 149.597 37.32ZM161.833 31.848L161.097 28.136L169.097 20.136H174.313L161.833 31.848ZM158.185 37V13.32H162.089V37H158.185ZM169.545 37L163.369 29.512L166.121 27.144L174.409 37H169.545Z" fill="#555555"/>
</g>
<defs>
<clipPath id="clip0_26_2">
<rect width="175" height="50" fill="white"/>
</clipPath>
</defs>
</svg>
